<mxfile host="app.diagrams.net" modified="2023-10-16T02:04:04.318Z" agent="Mozilla/5.0 (Windows NT 10.0; Win64; x64; rv:109.0) Gecko/20100101 Firefox/118.0" etag="LP5uB887sN7D6DOHGGJW" version="22.0.4" type="github">
  <diagram id="C5RBs43oDa-KdzZeNtuy" name="Page-1">
    <mxGraphModel dx="880" dy="1639" grid="1" gridSize="10" guides="1" tooltips="1" connect="1" arrows="1" fold="1" page="1" pageScale="1" pageWidth="827" pageHeight="1169" math="0" shadow="0">
      <root>
        <mxCell id="WIyWlLk6GJQsqaUBKTNV-0" />
        <mxCell id="WIyWlLk6GJQsqaUBKTNV-1" parent="WIyWlLk6GJQsqaUBKTNV-0" />
        <mxCell id="aJ5OwhAIBTd7fra0u5_c-0" value="" style="edgeStyle=orthogonalEdgeStyle;rounded=0;orthogonalLoop=1;jettySize=auto;html=1;" edge="1" parent="WIyWlLk6GJQsqaUBKTNV-1" source="aJ5OwhAIBTd7fra0u5_c-1" target="aJ5OwhAIBTd7fra0u5_c-3">
          <mxGeometry relative="1" as="geometry" />
        </mxCell>
        <mxCell id="aJ5OwhAIBTd7fra0u5_c-1" value="mulai" style="strokeWidth=2;html=1;shape=mxgraph.flowchart.start_1;whiteSpace=wrap;" vertex="1" parent="WIyWlLk6GJQsqaUBKTNV-1">
          <mxGeometry x="380" y="-480" width="100" height="60" as="geometry" />
        </mxCell>
        <mxCell id="aJ5OwhAIBTd7fra0u5_c-2" value="" style="edgeStyle=orthogonalEdgeStyle;rounded=0;orthogonalLoop=1;jettySize=auto;html=1;" edge="1" parent="WIyWlLk6GJQsqaUBKTNV-1" source="aJ5OwhAIBTd7fra0u5_c-3" target="aJ5OwhAIBTd7fra0u5_c-8">
          <mxGeometry relative="1" as="geometry" />
        </mxCell>
        <mxCell id="aJ5OwhAIBTd7fra0u5_c-3" value="input jari jari (r)" style="shape=parallelogram;html=1;strokeWidth=2;perimeter=parallelogramPerimeter;whiteSpace=wrap;rounded=1;arcSize=12;size=0.23;" vertex="1" parent="WIyWlLk6GJQsqaUBKTNV-1">
          <mxGeometry x="364" y="-360" width="126" height="80" as="geometry" />
        </mxCell>
        <mxCell id="aJ5OwhAIBTd7fra0u5_c-4" style="edgeStyle=orthogonalEdgeStyle;rounded=0;orthogonalLoop=1;jettySize=auto;html=1;exitX=0;exitY=0.5;exitDx=0;exitDy=0;exitPerimeter=0;entryX=0.5;entryY=0;entryDx=0;entryDy=0;" edge="1" parent="WIyWlLk6GJQsqaUBKTNV-1" source="aJ5OwhAIBTd7fra0u5_c-8" target="aJ5OwhAIBTd7fra0u5_c-10">
          <mxGeometry relative="1" as="geometry" />
        </mxCell>
        <mxCell id="aJ5OwhAIBTd7fra0u5_c-5" value="ya" style="edgeLabel;html=1;align=center;verticalAlign=middle;resizable=0;points=[];" vertex="1" connectable="0" parent="aJ5OwhAIBTd7fra0u5_c-4">
          <mxGeometry x="-0.4866" y="3" relative="1" as="geometry">
            <mxPoint as="offset" />
          </mxGeometry>
        </mxCell>
        <mxCell id="aJ5OwhAIBTd7fra0u5_c-6" style="edgeStyle=orthogonalEdgeStyle;rounded=0;orthogonalLoop=1;jettySize=auto;html=1;exitX=1;exitY=0.5;exitDx=0;exitDy=0;exitPerimeter=0;entryX=0.5;entryY=0;entryDx=0;entryDy=0;" edge="1" parent="WIyWlLk6GJQsqaUBKTNV-1" source="aJ5OwhAIBTd7fra0u5_c-8" target="aJ5OwhAIBTd7fra0u5_c-12">
          <mxGeometry relative="1" as="geometry" />
        </mxCell>
        <mxCell id="aJ5OwhAIBTd7fra0u5_c-7" value="tidak" style="edgeLabel;html=1;align=center;verticalAlign=middle;resizable=0;points=[];" vertex="1" connectable="0" parent="aJ5OwhAIBTd7fra0u5_c-6">
          <mxGeometry x="-0.4508" y="-1" relative="1" as="geometry">
            <mxPoint as="offset" />
          </mxGeometry>
        </mxCell>
        <mxCell id="aJ5OwhAIBTd7fra0u5_c-8" value="jari jari = kelipatan 7?" style="strokeWidth=2;html=1;shape=mxgraph.flowchart.decision;whiteSpace=wrap;" vertex="1" parent="WIyWlLk6GJQsqaUBKTNV-1">
          <mxGeometry x="377" y="-250" width="100" height="100" as="geometry" />
        </mxCell>
        <mxCell id="aJ5OwhAIBTd7fra0u5_c-9" style="edgeStyle=orthogonalEdgeStyle;rounded=0;orthogonalLoop=1;jettySize=auto;html=1;exitX=0.5;exitY=1;exitDx=0;exitDy=0;entryX=0;entryY=0.5;entryDx=0;entryDy=0;" edge="1" parent="WIyWlLk6GJQsqaUBKTNV-1" source="aJ5OwhAIBTd7fra0u5_c-10" target="aJ5OwhAIBTd7fra0u5_c-14">
          <mxGeometry relative="1" as="geometry" />
        </mxCell>
        <mxCell id="aJ5OwhAIBTd7fra0u5_c-10" value="phi=22/7" style="rounded=1;whiteSpace=wrap;html=1;absoluteArcSize=1;arcSize=14;strokeWidth=2;" vertex="1" parent="WIyWlLk6GJQsqaUBKTNV-1">
          <mxGeometry x="220" y="-120" width="100" height="100" as="geometry" />
        </mxCell>
        <mxCell id="aJ5OwhAIBTd7fra0u5_c-11" style="edgeStyle=orthogonalEdgeStyle;rounded=0;orthogonalLoop=1;jettySize=auto;html=1;exitX=0.5;exitY=1;exitDx=0;exitDy=0;entryX=1;entryY=0.75;entryDx=0;entryDy=0;" edge="1" parent="WIyWlLk6GJQsqaUBKTNV-1" source="aJ5OwhAIBTd7fra0u5_c-12" target="aJ5OwhAIBTd7fra0u5_c-14">
          <mxGeometry relative="1" as="geometry" />
        </mxCell>
        <mxCell id="aJ5OwhAIBTd7fra0u5_c-12" value="phi=3.14" style="rounded=1;whiteSpace=wrap;html=1;absoluteArcSize=1;arcSize=14;strokeWidth=2;" vertex="1" parent="WIyWlLk6GJQsqaUBKTNV-1">
          <mxGeometry x="540" y="-120" width="100" height="100" as="geometry" />
        </mxCell>
        <mxCell id="aJ5OwhAIBTd7fra0u5_c-13" style="edgeStyle=orthogonalEdgeStyle;rounded=0;orthogonalLoop=1;jettySize=auto;html=1;exitX=0.5;exitY=1;exitDx=0;exitDy=0;" edge="1" parent="WIyWlLk6GJQsqaUBKTNV-1" source="aJ5OwhAIBTd7fra0u5_c-14" target="aJ5OwhAIBTd7fra0u5_c-15">
          <mxGeometry relative="1" as="geometry" />
        </mxCell>
        <mxCell id="aJ5OwhAIBTd7fra0u5_c-14" value="&lt;div&gt;hitung luas&lt;/div&gt;&lt;div&gt;L = phi x r x r&lt;br&gt;&lt;/div&gt;" style="rounded=1;whiteSpace=wrap;html=1;absoluteArcSize=1;arcSize=14;strokeWidth=2;" vertex="1" parent="WIyWlLk6GJQsqaUBKTNV-1">
          <mxGeometry x="380" y="30" width="100" height="100" as="geometry" />
        </mxCell>
        <mxCell id="aJ5OwhAIBTd7fra0u5_c-15" value="tampilkan luas" style="strokeWidth=2;html=1;shape=mxgraph.flowchart.display;whiteSpace=wrap;" vertex="1" parent="WIyWlLk6GJQsqaUBKTNV-1">
          <mxGeometry x="380" y="170" width="100" height="60" as="geometry" />
        </mxCell>
        <mxCell id="aJ5OwhAIBTd7fra0u5_c-16" value="selesai" style="strokeWidth=2;html=1;shape=mxgraph.flowchart.start_1;whiteSpace=wrap;" vertex="1" parent="WIyWlLk6GJQsqaUBKTNV-1">
          <mxGeometry x="377" y="280" width="100" height="60" as="geometry" />
        </mxCell>
        <mxCell id="aJ5OwhAIBTd7fra0u5_c-17" style="edgeStyle=orthogonalEdgeStyle;rounded=0;orthogonalLoop=1;jettySize=auto;html=1;exitX=0.5;exitY=1;exitDx=0;exitDy=0;exitPerimeter=0;entryX=0.58;entryY=0;entryDx=0;entryDy=0;entryPerimeter=0;" edge="1" parent="WIyWlLk6GJQsqaUBKTNV-1" source="aJ5OwhAIBTd7fra0u5_c-15" target="aJ5OwhAIBTd7fra0u5_c-16">
          <mxGeometry relative="1" as="geometry" />
        </mxCell>
      </root>
    </mxGraphModel>
  </diagram>
</mxfile>
